<?xml version='1.0' encoding='utf-8'?>
<svg xmlns="http://www.w3.org/2000/svg" width="355.57" height="392.26" version="1.1" viewBox="10 70 10 35"> 
<g transform="translate(-55.781 -25.946)" fill="none" stroke="#000" stroke-linecap="round"> 
<g transform="translate(27.561 -241.51)"> <path d="m0 274.09h26.458l-13.229 22.913z" stroke-linejoin="bevel" stroke-width=".26458"/> <path d="m0 274.09 13.229 7.6465v15.266" stroke-linejoin="round" stroke-width=".26458px"/> <path d="m13.229 281.73 13.229-7.6465" stroke-linejoin="miter" stroke-width=".26458px"/> </g> 
<g transform="translate(58.524 -238.72)" stroke-linejoin="bevel"> <path d="m13.229 297 13.229-7.6379v-13.229l-13.229-7.6379-13.229 7.6379v13.229z" stroke-width=".26458px"/> <path d="m13.229 268.5v14.252l-13.229 6.6146" stroke-width=".26458px"/> <path d="m13.229 282.75 13.229 6.6146" stroke-width=".26458px"/> <path d="m13.229 297v-14.252l-13.229-6.6146" stroke-dasharray="0.79374995, 0.79374995" stroke-width=".26458"/> <path d="m13.229 282.75 13.229-6.6146" stroke-dasharray="0.79374995, 0.79374995" stroke-width=".26458"/> </g> </g> 
<g transform="translate(-24.781 -25.946)" fill="none" stroke="#000" stroke-linecap="round"> 
<g transform="translate(89.436 -237.71)"> <path d="m6.7468e-4 274.13h26.458l-13.229 22.913z" stroke-linejoin="bevel" stroke-width=".26458"/> <path d="m0.10057 289.34h26.458l-13.229-22.913z" stroke-dasharray="0.79374995, 0.79374995" stroke-linejoin="bevel" stroke-width=".26458"/> <path d="m6.7468e-4 274.13 13.329-7.704 13.129 7.704 0.09989 15.209-13.329 7.704-13.129-7.704z" stroke-linejoin="round" stroke-width=".26458px"/> </g> 
<g transform="translate(27.561 -204.89)" stroke-linejoin="round"> <path d="m0 283.77 5.5121-1.3229 7.7171 2.6458 7.717-2.6458 5.5122 1.3229" stroke-width=".26458px"/> <path d="m0 283.77 5.5121 1.3229 7.7171-2.6458 7.717 2.6458 5.5122-1.3229" stroke-dasharray="0.79374995, 0.79374995" stroke-width=".26458"/> <path d="m26.458 283.77-13.229-13.229-13.229 13.229 13.229 13.229z" stroke-width=".26458px"/> <path d="m5.5121 282.45 7.7171-11.906 7.717 11.906" stroke-width=".26458px"/> <path d="m13.229 285.09v11.906" stroke-width=".26458px"/> <path d="m5.5121 285.09 7.7171 11.906 7.717-11.906" stroke-dasharray="0.79374995, 0.79374995" stroke-dashoffset=".47625" stroke-width=".26458"/> <path d="m13.229 282.45v-11.906" stroke-dasharray="0.79374995, 0.79374995" stroke-width=".26458"/> </g> 
<g transform="translate(23.179 -200.23)" stroke-linejoin="round"> <path d="m35.345 279.12 5.5121-1.3229 7.7171 3.4396 7.717-3.4396 5.5122 1.3229" stroke-width=".26458px"/> <path d="m35.345 279.12 5.5121 1.3229 7.7171-3.4396 7.717 3.4396 5.5122-1.3229" stroke-dasharray="0.79374995, 0.79374995" stroke-dashoffset=".52917" stroke-width=".26458"/> <path d="m61.804 279.12-13.229-13.229-13.229 13.229 13.229 13.229z" stroke-width=".26458px"/> <path d="m40.857 277.79 7.7171-11.906 7.717 11.906" stroke-width=".26458px"/> <path d="m48.574 281.23v11.112" stroke-width=".26458px"/> <path d="m40.857 280.44 7.7171 11.906 7.717-11.906" stroke-dasharray="0.79374995, 0.79374995" stroke-dashoffset=".47625" stroke-width=".26458"/> <path d="m48.574 277v-11.112" stroke-dasharray="0.79374995, 0.79374995" stroke-dashoffset=".44979" stroke-width=".26458"/> </g> 
<g transform="translate(89.487 -206.48)" stroke-linejoin="round"> <path d="m13.229 285.36v-8.7312" stroke-width=".26458px"/> <path d="m5.2917 274.51 7.9375 2.1167 7.9375-2.1167" stroke-width=".26458px"/> <path d="m13.229 285.36 7.5615-4.3656" stroke-dasharray="0.79374995, 0.79374995" stroke-width=".26458"/> <path d="m18.655 273.06 2.1357 7.9324 5.8018 5.8158" stroke-dasharray="0.79374995, 0.79374995" stroke-width=".26458"/> <path d="m13.229 285.36 7.5615 4.3656" stroke-width=".26458px"/> <path d="m26.592 283.91-5.8018 5.8157-2.1357 7.9324" stroke-width=".26458px"/> <path d="m13.229 285.36-7.5615 4.3656" stroke-width=".26458px"/> <path d="m7.8034 297.66-2.1357-7.9324-5.8018-5.8157" stroke-width=".26458px"/> <path d="m13.229 285.36v8.7312" stroke-dasharray="0.79374995, 0.79374995" stroke-width=".26458"/> <path d="m21.167 296.21-7.9375-2.1167-7.9375 2.1167" stroke-dasharray="0.79374995, 0.79374995" stroke-width=".26458"/> <path d="m13.229 285.36-7.5615-4.3656" stroke-dasharray="0.79374995, 0.79374995" stroke-width=".26458"/> <path d="m-0.13415 286.81 5.8018-5.8158 2.1357-7.9324" stroke-dasharray="0.79374995, 0.79374995" stroke-width=".26458"/> <path d="m26.592 283.91v2.9002l-5.4258 9.3978-2.5117 1.4501h-10.852l-2.5117-1.4501-5.4258-9.3978v-2.9002l5.4258-9.3978 2.5117-1.4501h10.852l2.5117 1.4501z" stroke-width=".26458px"/> </g> </g> 
<g transform="translate(-24.781 -25.946)"> 
<g transform="translate(29.149 -170.03)" fill="none" stroke="#000"> <path d="m0 277.16 11.642-6.6146 11.642 6.6146v13.229l-11.642 6.6146-11.642-6.6146z" stroke-linecap="round" stroke-linejoin="bevel" stroke-width=".26458px"/> <path d="m11.642 277.16-5.8208 9.9219 11.642 0.0661z" stroke-dasharray="0.79374995, 0.79374995" stroke-linecap="round" stroke-linejoin="bevel" stroke-width=".26458"/> <path d="m0 277.16h23.283l-11.642 19.844z" stroke-dasharray="0.79374995, 0.79374995" stroke-linecap="round" stroke-linejoin="bevel" stroke-width=".26458"/> <path d="m17.462 287.14 5.8208 3.2412" stroke-dasharray="0.79374995, 0.79374995" stroke-linecap="round" stroke-linejoin="round" stroke-width=".26458"/> <path d="m11.642 277.16v-6.6146" stroke-dasharray="0.79374995, 0.79374995" stroke-linecap="round" stroke-linejoin="round" stroke-width=".26458"/> <path d="m5.8208 287.08-5.8208 3.3073" stroke-dasharray="0.79374995, 0.79374995" stroke-linecap="round" stroke-linejoin="round" stroke-width=".26458"/> <path d="m5.8208 280.46h11.642l-5.8208 9.9219z" stroke-linecap="round" stroke-linejoin="bevel" stroke-width=".26458px"/> <path d="m11.642 270.54-11.642 19.844h23.283z" stroke-linecap="round" stroke-linejoin="bevel" stroke-width=".26458px"/> <path d="m5.8208 280.46-5.8208-3.3073" stroke-linecap="butt" stroke-linejoin="miter" stroke-width=".26458px"/> <path d="m17.462 280.46 5.8208-3.3073" stroke-linecap="butt" stroke-linejoin="miter" stroke-width=".26458px"/> <path d="m11.642 290.39v6.6146" stroke-linecap="butt" stroke-linejoin="miter" stroke-width=".26458px"/> </g> </g> </svg>